<?xml version="1.0" encoding="UTF-8"?>
<svg width="88px" height="88px" viewBox="0 0 88 88" version="1.1" xmlns="http://www.w3.org/2000/svg" xmlns:xlink="http://www.w3.org/1999/xlink">
    <!-- Generator: Sketch 52.6 (67491) - http://www.bohemiancoding.com/sketch -->
    <title>ic_dinner</title>
    <desc>Created with Sketch.</desc>
    <defs>
        <circle id="path-1" cx="48" cy="44" r="24"></circle>
        <filter x="-50.0%" y="-50.0%" width="200.0%" height="200.0%" filterUnits="objectBoundingBox" id="filter-2">
            <feOffset dx="0" dy="0" in="SourceAlpha" result="shadowOffsetOuter1"></feOffset>
            <feGaussianBlur stdDeviation="8" in="shadowOffsetOuter1" result="shadowBlurOuter1"></feGaussianBlur>
            <feColorMatrix values="0 0 0 0 0.317647059   0 0 0 0 0.462745098   0 0 0 0 0.749019608  0 0 0 1 0" type="matrix" in="shadowBlurOuter1"></feColorMatrix>
        </filter>
        <linearGradient x1="50%" y1="0%" x2="50%" y2="100%" id="linearGradient-3">
            <stop stop-color="#FFFFFF" offset="0%"></stop>
            <stop stop-color="#FAFAFA" offset="100%"></stop>
        </linearGradient>
        <path d="M20,54.9775785 C19.835319,54.9924187 19.6685448,55 19.5,55 C16.4624339,55 14,52.5375661 14,49.5 C14,46.4624339 16.4624339,44 19.5,44 C19.5271393,44 19.5542328,44.0001966 19.5812789,44.0005884 C20.7679073,41.0684464 23.6423979,39 27,39 C31.0914018,39 34.4654501,42.0713553 34.9422986,46.0342195 C35.1250306,46.0116323 35.3111568,46 35.5,46 C37.9852814,46 40,48.0147186 40,50.5 C40,52.8162768 38.2499752,54.7238135 36,54.9725356 L36,55 L20,55 L20,54.9775785 Z" id="path-4"></path>
        <filter x="-69.2%" y="-112.5%" width="238.5%" height="325.0%" filterUnits="objectBoundingBox" id="filter-5">
            <feOffset dx="0" dy="0" in="SourceAlpha" result="shadowOffsetOuter1"></feOffset>
            <feGaussianBlur stdDeviation="6" in="shadowOffsetOuter1" result="shadowBlurOuter1"></feGaussianBlur>
            <feColorMatrix values="0 0 0 0 0   0 0 0 0 0   0 0 0 0 0  0 0 0 0.12 0" type="matrix" in="shadowBlurOuter1"></feColorMatrix>
        </filter>
        <path d="M62.9230769,38.4468782 C62.8154009,38.4565815 62.7063562,38.4615385 62.5961538,38.4615385 C60.6100529,38.4615385 59,36.8514855 59,34.8653846 C59,32.8792837 60.6100529,31.2692308 62.5961538,31.2692308 C62.6138988,31.2692308 62.6316137,31.2693593 62.6492978,31.2696155 C63.4251701,29.3524457 65.3046448,28 67.5,28 C70.1751473,28 72.3812558,30.0081938 72.6930414,32.5992974 C72.81252,32.5845288 72.9342179,32.5769231 73.0576923,32.5769231 C74.682684,32.5769231 76,33.8942391 76,35.5192308 C76,37.0337195 74.855753,38.280955 73.3846154,38.443581 L73.3846154,38.4615385 L62.9230769,38.4615385 L62.9230769,38.4468782 Z" id="path-6"></path>
        <filter x="-105.9%" y="-172.1%" width="311.8%" height="444.1%" filterUnits="objectBoundingBox" id="filter-7">
            <feOffset dx="0" dy="0" in="SourceAlpha" result="shadowOffsetOuter1"></feOffset>
            <feGaussianBlur stdDeviation="6" in="shadowOffsetOuter1" result="shadowBlurOuter1"></feGaussianBlur>
            <feColorMatrix values="0 0 0 0 0   0 0 0 0 0   0 0 0 0 0  0 0 0 0.12 0" type="matrix" in="shadowBlurOuter1"></feColorMatrix>
        </filter>
        <path d="M55.9230769,63.4468782 C55.8154009,63.4565815 55.7063562,63.4615385 55.5961538,63.4615385 C53.6100529,63.4615385 52,61.8514855 52,59.8653846 C52,57.8792837 53.6100529,56.2692308 55.5961538,56.2692308 C55.6138988,56.2692308 55.6316137,56.2693593 55.6492978,56.2696155 C56.4251701,54.3524457 58.3046448,53 60.5,53 C63.1751473,53 65.3812558,55.0081938 65.6930414,57.5992974 C65.81252,57.5845288 65.9342179,57.5769231 66.0576923,57.5769231 C67.682684,57.5769231 69,58.8942391 69,60.5192308 C69,62.0337195 67.855753,63.280955 66.3846154,63.443581 L66.3846154,63.4615385 L55.9230769,63.4615385 L55.9230769,63.4468782 Z" id="path-8"></path>
        <filter x="-105.9%" y="-172.1%" width="311.8%" height="444.1%" filterUnits="objectBoundingBox" id="filter-9">
            <feOffset dx="0" dy="0" in="SourceAlpha" result="shadowOffsetOuter1"></feOffset>
            <feGaussianBlur stdDeviation="6" in="shadowOffsetOuter1" result="shadowBlurOuter1"></feGaussianBlur>
            <feColorMatrix values="0 0 0 0 0   0 0 0 0 0   0 0 0 0 0  0 0 0 0.12 0" type="matrix" in="shadowBlurOuter1"></feColorMatrix>
        </filter>
    </defs>
    <g id="Website" stroke="none" stroke-width="1" fill="none" fill-rule="evenodd">
        <g id="Homepage" transform="translate(-319.000000, -424.000000)">
            <g id="Hero" transform="translate(120.000000, 100.000000)">
                <g id="Group-3" transform="translate(0.000000, 320.000000)">
                    <g id="G" transform="translate(199.000000, 0.000000)">
                        <g id="Group-2" transform="translate(0.000000, 4.000000)">
                            <g id="Oval">
                                <use fill="black" fill-opacity="1" filter="url(#filter-2)" xlink:href="#path-1"></use>
                                <use fill="#456BB8" fill-rule="evenodd" xlink:href="#path-1"></use>
                            </g>
                            <g id="Combined-Shape" opacity="0.800000012">
                                <use fill="black" fill-opacity="1" filter="url(#filter-5)" xlink:href="#path-4"></use>
                                <use fill="url(#linearGradient-3)" fill-rule="evenodd" xlink:href="#path-4"></use>
                            </g>
                            <g id="Combined-Shape" opacity="0.800000012">
                                <use fill="black" fill-opacity="1" filter="url(#filter-7)" xlink:href="#path-6"></use>
                                <use fill="url(#linearGradient-3)" fill-rule="evenodd" xlink:href="#path-6"></use>
                            </g>
                            <g id="Combined-Shape" opacity="0.800000012">
                                <use fill="black" fill-opacity="1" filter="url(#filter-9)" xlink:href="#path-8"></use>
                                <use fill="url(#linearGradient-3)" fill-rule="evenodd" xlink:href="#path-8"></use>
                            </g>
                            <circle id="Oval" fill="#000000" opacity="0.200000003" cx="39.5" cy="35.5" r="4.5"></circle>
                            <circle id="Oval" fill="#000000" opacity="0.200000003" cx="22" cy="18" r="2"></circle>
                            <circle id="Oval" fill="#000000" opacity="0.200000003" cx="31" cy="17" r="1"></circle>
                            <circle id="Oval" fill="#000000" opacity="0.200000003" cx="74" cy="27" r="1"></circle>
                            <circle id="Oval" fill="#000000" opacity="0.200000003" cx="74" cy="57" r="1"></circle>
                            <circle id="Oval" fill="#000000" opacity="0.200000003" cx="73.5" cy="76.5" r="1"></circle>
                            <circle id="Oval" fill="#000000" opacity="0.200000003" cx="65" cy="67" r="1"></circle>
                            <circle id="Oval" fill="#000000" opacity="0.200000003" cx="23.5" cy="27.5" r="1.5"></circle>
                            <circle id="Oval" fill="#000000" opacity="0.200000003" cx="42.5" cy="58.5" r="2.5"></circle>
                            <circle id="Oval" fill="#000000" opacity="0.200000003" cx="59.5" cy="45.5" r="3.5"></circle>
                            <circle id="Oval" fill="#000000" opacity="0.200000003" cx="50.5" cy="46.5" r="1.5"></circle>
                        </g>
                    </g>
                </g>
            </g>
        </g>
    </g>
</svg>